<svg xmlns="http://www.w3.org/2000/svg" id="Layer_1" data-name="Layer 1" version="1.1" viewBox="0 0 2582 2990"><defs><clipPath id="clippath-1"><path d="M0 0h192v192H0z" class="cls-4"/></clipPath><clipPath id="clippath-2"><path d="M0 0h192v192H0z" class="cls-4"/></clipPath><clipPath id="clippath-3"><path d="M0 0h192v192H0z" class="cls-4"/></clipPath><clipPath id="clippath-4"><path d="M0 0h192v192H0z" class="cls-4"/></clipPath><clipPath id="clippath-5"><path d="M0 0h192v192H0z" class="cls-4"/></clipPath><clipPath id="clippath"><path d="M200 0h2183v2183H200z" class="cls-4"/></clipPath><symbol id="material_product_standard_icon_keylines" viewBox="0 0 192 192"><g style="opacity:.4"><g style="clip-path:url(#clippath-1)"><path d="M191.8.2v191.5H.2V.2h191.5m.3-.2H0v192h192V0Z" style="stroke-width:0;fill:#000"/><circle cx="96" cy="96" r="64" class="cls-10"/></g><circle cx="96" cy="96" r="88" class="cls-10" style="clip-path:url(#clippath-2)"/><path d="M160 20H32c-6.6 0-12 5.4-12 12v128c0 6.6 5.4 12 12 12h128c6.6 0 12-5.4 12-12V32c0-6.6-5.4-12-12-12Z" class="cls-10" style="clip-path:url(#clippath-3)"/><path d="M148 8H44c-6.6 0-12 5.4-12 12v152c0 6.6 5.4 12 12 12h104c6.6 0 12-5.4 12-12V20c0-6.6-5.4-12-12-12Z" class="cls-10" style="clip-path:url(#clippath-4)"/><path d="M172 32H20c-6.6 0-12 5.4-12 12v104c0 6.6 5.4 12 12 12h152c6.6 0 12-5.4 12-12V44c0-6.6-5.4-12-12-12Z" class="cls-10" style="clip-path:url(#clippath-5)"/></g></symbol><style>.cls-4,.cls-7{stroke-width:0}.cls-9{isolation:isolate;opacity:.4}.cls-10,.cls-4,.cls-9{fill:none}.cls-10,.cls-9{stroke:#000;stroke-miterlimit:10;stroke-width:.2px}.cls-17{display:none}.cls-7{fill:#5f6469}</style></defs><g id="Product_name" data-name="Product name"><path d="M202.4 2713.7v-54.3H384c1.9 9.6 2.9 20.9 2.9 33.3 0 40.7-11.1 91.1-47 126.9-34.9 36.3-79.4 55.7-138.5 55.7-109.5 0-201.5-89.1-201.5-198.6s92-198.6 201.5-198.6 103.6 23.7 136.1 54.7l-38.3 38.3c-23.2-21.8-54.7-38.8-97.8-38.8-79.9 0-142.4 64.4-142.4 144.3S121.5 2821 201.4 2821s81.4-20.8 100.3-39.7c15.4-15.4 25.5-37.5 29.5-67.7H202.4ZM663.7 2747.5c0 73.6-57.6 127.9-128.3 127.9s-128.3-54.3-128.3-127.9 57.6-127.9 128.3-127.9c70.7 0 128.3 53.8 128.3 127.9Zm-56.2 0c0-46-33.4-77.5-72.2-77.5s-72.2 31.5-72.2 77.5 33.4 77.5 72.2 77.5c38.7 0 72.2-32 72.2-77.5ZM943.7 2747.5c0 73.6-57.6 127.9-128.3 127.9s-128.3-54.3-128.3-127.9 57.6-127.9 128.3-127.9c70.7 0 128.3 53.8 128.3 127.9Zm-56.2 0c0-46-33.4-77.5-72.2-77.5s-72.2 31.5-72.2 77.5 33.4 77.5 72.2 77.5c38.7 0 72.2-32 72.2-77.5ZM1212.1 2627.4V2857c0 94.5-55.7 133.2-121.6 133.2s-99.3-41.7-113.3-75.6l48.9-20.3c8.7 20.8 30 45.5 64.4 45.5s68.3-26.2 68.3-75.1v-18.4h-1.9c-12.6 15.5-36.8 29.1-67.3 29.1-63.9 0-122.5-55.7-122.5-127.4s58.6-128.4 122.5-128.4 54.7 13.6 67.3 28.6h1.9v-20.8h53.3Zm-49.4 120.6c0-45.1-30-78-68.3-78s-71.2 32.9-71.2 78 32.5 77 71.2 77c38.3 0 68.3-32.5 68.3-77ZM1307.2 2493v374.6H1251V2493h56.2ZM1524.2 2789.6l43.6 29.1c-14 20.8-47.9 56.7-106.6 56.7s-126.9-56.2-126.9-127.9 54.7-127.9 120.6-127.9 98.8 52.8 109.5 81.4l5.8 14.5-171 70.7c13.1 25.7 33.4 38.8 62 38.8s48.4-14.1 63-35.4Zm-134.2-46 114.3-47.5c-6.3-16-25.2-27.1-47.5-27.1-28.6 0-68.3 25.2-66.8 74.6ZM2519.8 2628.1l-64.1 162.5h-1.9l-66.6-162.5h-60.3l99.8 227.1-56.9 126.3h58.4l153.8-353.4h-62.2ZM2069 2493.1h-55.9v374.7h55.9v-374.7ZM1859.3 2493.1h-134v374.7h56V2726h78.1c62 0 123-44.9 123-116.4s-61.1-116.5-123.1-116.5Zm1.5 180.5h-79.5v-128.2h79.6c17 0 33.4 6.8 45.4 18.8 12.1 12 18.8 28.4 18.8 45.4s-6.8 33.4-18.8 45.4c-12.1 12-28.4 18.8-45.4 18.8v-.3ZM2206.5 2619.9c-40.5 0-82.5 17.8-99.8 57.4l49.7 20.7c10.6-20.7 30.4-27.4 51.1-27.4s58.3 17.4 58.8 48.3v3.8c-17.9-9.6-37.8-14.6-58.1-14.6-53.5 0-108 29.4-108 84.4s43.8 82.4 93 82.4 58.4-16.9 71.1-36.6h2v28.9h54v-143.6c0-66.5-49.7-103.7-113.8-103.7Zm-6.8 205.4c-18.3 0-43.8-9.2-43.8-31.8s31.8-40 59.3-40c17.9-.5 35.5 3.9 51.1 12.5-2.1 16.3-9.9 31.2-22.2 42.1-12.3 10.9-28 17-44.4 17.2Z" class="cls-7"/></g><g id="Product_icon_grid" data-name="Product icon grid"><g id="Play_Parent_192" data-name="Play Parent 192"><path d="m1282.8 1046.6-836.3 879.1c0 .2 0 .4.1.5 25.7 95.4 113.7 165.7 218.2 165.7s81-11.2 114.6-30.8l2.7-1.6 941.4-538-440.6-475.1Z" style="fill:#ea4435;stroke-width:0"/><path d="m2128.9 896.9-.8-.5L1721.7 663l-457.9 403.6 459.5 455 404.3-231c70.9-37.9 119-111.9 119-197.2 0-84.8-47.5-158.4-117.7-196.4Z" style="fill:#f9bc15;stroke-width:0"/><path d="M446.4 257.2c-5 18.4-7.7 37.6-7.7 57.6v1553.5c.8 22.3 2.6 39.2 7.7 57.5l865.1-856.6-865.1-812Z" style="fill:#547dbf;stroke-width:0"/><path d="M1289 1091.5 1721.7 663 781.5 123c-34.2-20.3-74.1-32-116.7-32-104.5 0-192.6 70.4-218.3 166v.2l842.6 834.3Z" style="fill:#33a852;stroke-width:0"/></g></g></svg>